<?xml version="1.0" encoding="iso-8859-1"?>
<!-- Generator: Adobe Illustrator 17.1.0, SVG Export Plug-In . SVG Version: 6.00 Build 0)  -->
<!DOCTYPE svg PUBLIC "-//W3C//DTD SVG 1.1//EN" "http://www.w3.org/Graphics/SVG/1.1/DTD/svg11.dtd">
<svg version="1.1" id="Capa_1" xmlns="http://www.w3.org/2000/svg" xmlns:xlink="http://www.w3.org/1999/xlink" x="0px" y="0px"
	 viewBox="0 0 358.768 358.768" style="enable-background:new 0 0 358.768 358.768;" xml:space="preserve">
<path d="M297.799,2.928c-3.906-3.904-10.236-3.904-14.143,0L2.93,283.655c-3.905,3.905-3.905,10.237,0,14.143
	c40.652,40.652,94.034,60.971,147.433,60.971c53.386,0,106.788-20.328,147.431-60.97C379.09,216.501,379.093,84.222,297.799,2.928z
	 M258.664,56.205c21.1,24.235,32.697,53.93,34.791,84.158H174.507L258.664,56.205z M293.455,160.363
	c-2.094,30.229-13.691,59.923-34.791,84.157l-84.157-84.157H293.455z M160.364,174.504l84.161,84.16
	c-23.61,20.589-52.908,32.724-84.161,34.861V174.504z M140.364,174.505v119.021c-31.253-2.138-60.55-14.273-84.16-34.861
	L140.364,174.505z M283.65,283.656c-35.602,35.603-82.939,55.209-133.289,55.209c-47.004,0-91.379-17.086-126.035-48.321
	l17.706-17.707c29.913,26.53,68.01,41.03,108.332,41.03c43.663,0,84.712-16.998,115.591-47.866c0.008-0.008,0.017-0.016,0.024-0.023
	c0.008-0.008,0.016-0.017,0.023-0.024c31.532-31.545,47.46-72.876,47.783-114.306c0.055-0.42,0.082-0.849,0.082-1.284
	c0-0.436-0.027-0.864-0.082-1.284c-0.299-38.322-13.947-76.56-40.949-107.046l17.705-17.706
	C357.072,98.238,354.777,212.53,283.65,283.656z"/>
<g>
</g>
<g>
</g>
<g>
</g>
<g>
</g>
<g>
</g>
<g>
</g>
<g>
</g>
<g>
</g>
<g>
</g>
<g>
</g>
<g>
</g>
<g>
</g>
<g>
</g>
<g>
</g>
<g>
</g>
</svg>
